<?xml version="1.0" encoding="UTF-8" standalone="no"?>
<svg width="200px" height="200px" viewBox="0 0 200 200" version="1.1" xmlns="http://www.w3.org/2000/svg" xmlns:xlink="http://www.w3.org/1999/xlink" xmlns:sketch="http://www.bohemiancoding.com/sketch/ns">
    <!-- Generator: Sketch 3.1 (8751) - http://www.bohemiancoding.com/sketch -->
    <title>mantis-querist</title>
    <desc>Created with Sketch.</desc>
    <defs></defs>
    <g id="Page-1" stroke="none" stroke-width="1" fill="none" fill-rule="evenodd" sketch:type="MSPage">
        <g id="mantis-querist" sketch:type="MSArtboardGroup">
            <circle id="background" fill="#51BF81" sketch:type="MSShapeGroup" cx="100" cy="100" r="100"></circle>
            <path d="M200,58.5786438 C160.947571,19.5262146 97.6310729,19.5262146 58.5786438,58.5786438 C19.5262146,97.6310729 19.5262146,160.947571 58.5786438,200 L200,58.5786438 L200,58.5786438 Z" id="background-2" fill="#1F9F55" sketch:type="MSShapeGroup" transform="translate(114.644661, 114.644661) scale(-1, -1) translate(-114.644661, -114.644661) "></path>
            <path d="M142.857143,50 L121.428571,50 C117.485714,50 114.285714,53.2 114.285714,57.1428571 C114.285714,61.0857143 117.485714,64.2857143 121.428571,64.2857143 L125.714286,64.2857143 L109.285714,80.7178571 C108.142857,81.8607143 107.142857,83.3714286 107.142857,85.7142857 C107.142857,89.6214286 110.210714,92.8571429 114.285714,92.8571429 C116.575,92.8571429 118.032143,91.9714286 119.285714,90.7142857 L135.714286,74.2857143 L135.714286,78.5714286 C135.714286,82.5142857 138.914286,85.7142857 142.857143,85.7142857 C146.8,85.7142857 150,82.5142857 150,78.5714286 L150,57.1428571 C150,53.2 146.8,50 142.857143,50 L142.857143,50 L142.857143,50 Z M85.7142857,107.142857 C83.425,107.142857 81.9678571,108.028571 80.7142857,109.285714 L64.2857143,125.714286 L64.2857143,121.428571 C64.2857143,117.485714 61.0857143,114.285714 57.1428571,114.285714 C53.2,114.285714 50,117.485714 50,121.428571 L50,142.857143 C50,146.8 53.2,150 57.1428571,150 L78.5714286,150 C82.5142857,150 85.7142857,146.8 85.7142857,142.857143 C85.7142857,138.914286 82.5142857,135.714286 78.5714286,135.714286 L74.2857143,135.714286 L90.7142857,119.282143 C91.8571429,118.139286 92.8571429,116.628571 92.8571429,114.285714 C92.8571429,110.378571 89.7892857,107.142857 85.7142857,107.142857 L85.7142857,107.142857 L85.7142857,107.142857 Z" id="icon" fill="#FFFFFF" sketch:type="MSShapeGroup"></path>
        </g>
    </g>
</svg>